<?xml version="1.0" encoding="utf-8"?>
<!-- Generator: Adobe Illustrator 24.3.0, SVG Export Plug-In . SVG Version: 6.00 Build 0)  -->
<svg version="1.1" id="Laag_1" xmlns="http://www.w3.org/2000/svg" xmlns:xlink="http://www.w3.org/1999/xlink" x="0px" y="0px"
	 viewBox="0 0 450.8 439.2" style="enable-background:new 0 0 450.8 439.2;" xml:space="preserve">
<style type="text/css">
	.st0{fill:#6900FF;}
</style>
<g>
	<path class="st0" d="M130.7,236.6c-0.1-52.2,42.4-94.9,94.6-94.9c52.1-0.1,94.7,42.4,94.8,94.4c0.1,52.2-42.4,94.9-94.6,94.9
		C173.4,331.1,130.8,288.6,130.7,236.6z M293.1,236.4c0-37.3-30.1-67.7-67.3-67.8c-37.6-0.1-68,30.1-68.1,67.6
		c0,37.4,30.2,67.8,67.6,67.8C262.7,304,293,273.8,293.1,236.4z"/>
	<path class="st0" d="M129.9,318.4c5.4,0.4,9.7,2.9,12.1,8.1c2.4,5.1,1.7,10.2-2.1,14.2c-6.7,7.1-13.5,14-20.6,20.7
		c-5.2,4.9-13.2,4.4-18.3-0.8c-5-5.1-5.4-13.1-0.4-18.3c6.6-6.9,13.5-13.6,20.3-20.3C123.2,319.6,126.3,318.6,129.9,318.4z"/>
	<path class="st0" d="M321,318.4c3.6,0.2,6.8,1.3,9.3,3.8c6.6,6.6,13.3,13.1,19.8,19.8c5.2,5.4,4.9,13.5-0.4,18.7
		c-5.3,5.2-13.3,5.4-18.7,0.2c-6.7-6.5-13.3-13-19.8-19.8c-3.9-4.1-4.9-9.1-2.6-14.3C311,321.4,315.3,318.8,321,318.4z"/>
	<path class="st0" d="M307.5,140.9c0.2-3.8,1.2-6.9,3.6-9.3c6.7-6.8,13.3-13.6,20.1-20.1c5.3-5.1,13.3-4.7,18.5,0.4
		c5.2,5.1,5.6,13.2,0.5,18.5c-6.6,6.9-13.3,13.6-20.1,20.1c-4.1,3.9-9.1,4.8-14.4,2.4C310.4,150.6,307.9,146.2,307.5,140.9z"/>
	<path class="st0" d="M111,107.9c3,0.2,6.2,1.2,8.7,3.7c6.6,6.5,13.3,13.1,19.8,19.8c5.2,5.4,5,13.4-0.3,18.6
		c-5.2,5.2-13.2,5.5-18.6,0.3c-6.8-6.5-13.5-13.1-19.9-20c-3.9-4.1-4.7-9.1-2.4-14.4C100.4,111.2,105.3,108,111,107.9z"/>
	<path class="st0" d="M238.9,87.4c0,4.5,0,9,0,13.5c-0.1,7.7-5.9,13.6-13.4,13.6c-7.6,0-13.5-5.9-13.6-13.7
		c-0.1-8.9-0.1-17.8,0-26.7c0.1-7.8,6-13.7,13.6-13.6c7.4,0,13.2,6,13.3,13.7C238.9,78.5,238.9,82.9,238.9,87.4z"/>
	<path class="st0" d="M76.4,249.8c-4.5,0-9,0.1-13.5,0c-7.5-0.1-13.4-6-13.4-13.3c0-7.5,5.8-13.5,13.4-13.6c9.1-0.1,18.2-0.1,27.2,0
		c7.6,0.1,13.4,6.1,13.4,13.6c0,7.3-5.9,13.2-13.4,13.3C85.6,249.8,81,249.8,76.4,249.8z"/>
	<path class="st0" d="M374.2,249.8c-4.4,0-8.8,0-13.2,0c-7.8-0.1-13.7-5.9-13.7-13.5c0-7.6,5.9-13.4,13.8-13.4
		c8.9,0,17.8-0.1,26.7,0c7.4,0,13.4,6,13.5,13.3c0.1,7.4-6,13.6-13.3,13.7C383.4,249.9,378.8,249.8,374.2,249.8
		C374.2,249.8,374.2,249.8,374.2,249.8z"/>
	<path class="st0" d="M238.9,385.3c0,4.3,0,8.7,0,13c0,7.8-6,14-13.6,13.9c-7.5,0-13.4-6.2-13.4-13.9c0-9.1-0.1-18.2,0.1-27.2
		c0.1-6.3,4.7-11.4,11.1-12.7c5.8-1.2,12.2,2.1,14.5,7.7c0.8,1.8,1.2,3.8,1.3,5.8C239,376.3,238.9,380.8,238.9,385.3
		C238.9,385.3,238.9,385.3,238.9,385.3z"/>
</g>
</svg>
